<svg xmlns="http://www.w3.org/2000/svg" data-name="Layer 1" viewBox="0 0 64 64" id="image-upload">
    <path d="M61.84,23.63h0a16.5,16.5,0,0,1-1.77,1.59V39.58L53.75,28.66a2.15,2.15,0,0,0-.41-.53,2.63,2.63,0,0,0-1.94-.83h0a2.67,2.67,0,0,0-2.07,1,2.21,2.21,0,0,0-.28.4L43,39.09l-3.73-6.45a2.72,2.72,0,0,0-4.71,0L25.24,48.83c-8.29-1-15.45,1.1-20.69,2.64l-.65.19V19.53a1,1,0,0,1,1-1H36.59c-.12-.3-.22-.61-.32-.92a13.45,13.45,0,0,1-.49-2.08H4.9a4,4,0,0,0-4,4V59.19a4,4,0,0,0,4,4H59.06a4,4,0,0,0,4-4v-37A15.1,15.1,0,0,1,61.84,23.63ZM60.06,59.19a1,1,0,0,1-1,1H4.9a1,1,0,0,1-1-1V54.78l1.49-.43c5-1.47,11.82-3.48,19.5-2.55a2.52,2.52,0,0,0,2.79-1.19l9.26-16L40.66,41a2.72,2.72,0,0,0,4.71,0l6-10.43L60,45.5l0,0Z"
          fill="#555555"/>
    <path d="M18.32 23.81a6.93 6.93 0 1 0 6.93 6.93A6.94 6.94 0 0 0 18.32 23.81zm0 10.86a3.93 3.93 0 1 1 3.93-3.93A3.94 3.94 0 0 1 18.32 34.67zM44.06 14.36a1.5 1.5 0 0 0 2.12 0l3.13-3.22v7.7a1.5 1.5 0 1 0 3 0v-7.7l3.13 3.22a1.5 1.5 0 1 0 2.15-2.09L51.89 6.36a1.5 1.5 0 0 0-2.15 0L44 12.24A1.5 1.5 0 0 0 44.06 14.36z"
          fill="#555555"/>
    <path d="M50.82,25.4A12.29,12.29,0,1,0,38.53,13.11,12.3,12.3,0,0,0,50.82,25.4Zm0-21.58a9.29,9.29,0,1,1-9.29,9.29A9.3,9.3,0,0,1,50.82,3.82Z"
          fill="#555555"/>
</svg>