<?xml version="1.0" encoding="utf-8"?>
<!-- Generator: Adobe Illustrator 24.3.0, SVG Export Plug-In . SVG Version: 6.00 Build 0)  -->
<svg version="1.1" id="Layer_1" xmlns="http://www.w3.org/2000/svg" x="0px" y="0px"
     viewBox="0 0 512 418" style="enable-background:new 0 0 512 418;" xml:space="preserve">
<g transform="translate(1 1)">
	<g>
		<g>
			<path d="M272,289h136.5c5.1,0,8.5-3.4,8.5-8.5v-76.8c0-5.1-3.4-8.5-8.5-8.5H272c-5.1,0-8.5,3.4-8.5,8.5v76.8
				C263.5,285.6,266.9,289,272,289z M280.5,212.3h119.4V272H280.5V212.3z"/>
			<path d="M41.7,178.1h68.2c5.1,0,8.5-3.4,8.5-8.5s-3.4-8.5-8.5-8.5H41.7c-5.1,0-8.5,3.4-8.5,8.5C33.1,174.7,36.5,178.1,41.7,178.1
				z"/>
			<path d="M144,178.1h68.2c5.1,0,8.5-3.4,8.5-8.5s-3.4-8.5-8.5-8.5H144c-5.1,0-8.5,3.4-8.5,8.5C135.5,174.7,138.9,178.1,144,178.1z
				"/>
			<path d="M41.7,212.3h110.9c5.1,0,8.5-3.4,8.5-8.5s-3.4-8.5-8.5-8.5H41.7c-5.1,0-8.5,3.4-8.5,8.5
				C33.1,208.9,36.5,212.3,41.7,212.3z"/>
			<path d="M212.3,195.2h-25.6c-5.1,0-8.5,3.4-8.5,8.5s3.4,8.5,8.5,8.5h25.6c5.1,0,8.5-3.4,8.5-8.5S217.4,195.2,212.3,195.2z"/>
			<path d="M503.2,89.4c-6-7.7-13.6-11.9-23-12.8l-20.5-2.5v-24v-17c0-18.8-15.4-34.1-34.1-34.1H33.1C14.4-1-1,14.4-1,33.1v17.1
				v68.2v187.7c0,15.4,10.4,28.5,24.4,32.7C23,356.1,36.1,371,53.6,372.6L447.7,417c0.9,0,2.6,0,3.4,0c17.1,0,32.4-12.8,34.1-29
				l25.6-273.8C511.7,105.6,509.1,96.2,503.2,89.4z M16.1,58.7h426.5v22.2v29H16.1V58.7z M33.1,16.1h392.4c9.4,0,17.1,7.7,17.1,17.1
				v8.5H16.1v-8.5C16.1,23.7,23.7,16.1,33.1,16.1z M16.1,306.1V127h426.5v179.1c0,9.4-7.7,17.1-17.1,17.1H34h-0.9
				C23.7,323.2,16.1,315.5,16.1,306.1z M493.8,110.8l-25.6,273.8c-0.9,9.4-9.4,16.2-18.8,15.4L56.2,355.6
				c-8.5-0.9-14.5-7.7-15.4-15.4h384.7c18.8,0,34.1-15.4,34.1-34.1V118.4V90.2l19.6,1.7c4.3,0,8.5,2.6,11.1,6
				C492.9,101.4,494.6,106.5,493.8,110.8z"/>
		</g>
	</g>
</g>
</svg>
