<?xml version="1.0" encoding="utf-8"?>
<!-- Generator: Adobe Illustrator 24.3.0, SVG Export Plug-In . SVG Version: 6.00 Build 0)  -->
<svg version="1.1" id="Layer_1" xmlns="http://www.w3.org/2000/svg" x="0px" y="0px"
     viewBox="0 0 512 347.4" style="enable-background:new 0 0 512 347.4;" xml:space="preserve">
<g id="icomoon-ignore">
</g>
<path d="M293.2,82.3c-30.3,0-54.9,24.6-54.9,54.9s24.6,54.9,54.9,54.9s54.9-24.6,54.9-54.9S323.5,82.3,293.2,82.3L293.2,82.3z
	 M293.2,173.7c-20.2,0-36.6-16.4-36.6-36.6s16.4-36.6,36.6-36.6s36.6,16.4,36.6,36.6S313.4,173.7,293.2,173.7L293.2,173.7z"/>
<path d="M73.8,0v274.3h438.9V0H73.8L73.8,0z M494.4,61.8v194.1H92.1V18.3h402.3V61.8L494.4,61.8z"/>
<path d="M414.6,292.6H55.5v-256H37.2v274.3h438.9v-18.3h-18.3H414.6z"/>
<path d="M378,329.1H18.9v-256H0.7v274.3h438.9v-18.3h-18.3H378z"/>
<path d="M119.5,37.1h54.9v18.3h-54.9L119.5,37.1L119.5,37.1z"/>
<path d="M119.5,219.4h54.9v18.3h-54.9L119.5,219.4L119.5,219.4z"/>
<path d="M412.1,37.1H467v18.3h-54.9V37.1z"/>
<path d="M412.1,219.4H467v18.3h-54.9V219.4z"/>
</svg>
