<?xml version="1.0" encoding="utf-8"?>
<!-- Generator: Adobe Illustrator 24.3.0, SVG Export Plug-In . SVG Version: 6.00 Build 0)  -->
<svg version="1.1" id="Capa_1" xmlns="http://www.w3.org/2000/svg" x="0px" y="0px"
     viewBox="0 0 512 439.4" style="enable-background:new 0 0 512 439.4;" xml:space="preserve">
<g>
	<path d="M483.3,191.1h-12.2v-73.2c0-29.9-24.4-54.2-54.2-54.2h-11.2l0.1-27.2c0-20.2-16.4-36.5-36.5-36.5H44.4
		C20.2,0,0.3,19.5,0,43.8c0,0.2,0,0.4,0,0.6v358.5c0,20.2,16.4,36.5,36.5,36.5H417c29.9,0,54.2-24.4,54.2-54.2v-73.3h12.2
		c15.8,0,28.6-12.8,28.6-28.6v-63.7C511.9,203.9,499.1,191.1,483.3,191.1z M44.4,25.2h324.9c6.2,0,11.3,5,11.3,11.2l-0.1,27.3H44.4
		c-10.6,0-19.2-8.6-19.2-19.2S33.8,25.2,44.4,25.2z M446,385.1c0,16-13,29-29,29H36.4c-6.2,0-11.3-5-11.3-11.3V84.5
		c5.9,2.8,12.4,4.4,19.3,4.4H417c16,0,29,13,29,29v73.2h-86c-15.8,0-28.6,12.8-28.6,28.6v63.7c0,15.8,12.8,28.6,28.6,28.6h86V385.1
		L446,385.1z M486.7,283.4c0,1.9-1.5,3.4-3.4,3.4H360.1c-1.9,0-3.4-1.5-3.4-3.4v-63.7c0-1.8,1.5-3.4,3.4-3.4h123.3
		c1.8,0,3.4,1.5,3.4,3.4v63.7H486.7z"/>
</g>
</svg>
